<svg width="377" height="83" viewBox="0 0 377 83" fill="none" xmlns="http://www.w3.org/2000/svg">
<path fill-rule="evenodd" clip-rule="evenodd" d="M366.695 14.9529C345.508 14.9529 334.19 26.7428 333.754 41.9832C332.282 34.2071 328.079 27.1983 321.891 22.1982C315.702 17.1982 307.928 14.5297 299.944 14.6654C292.053 14.5341 284.371 17.1773 278.261 22.1258C272.151 27.0743 268.008 34.0079 266.568 41.6957C266.646 34.6275 263.896 27.8164 258.92 22.7512C253.944 17.6861 247.146 14.779 240.013 14.6654C236.919 14.6484 233.853 15.2366 230.989 16.3962C228.126 17.5558 225.521 19.264 223.325 21.423V0.143778H207.363V47.5906L207.218 52.3353C206.202 62.1122 199.527 67.0007 192.272 67.0007C184.726 67.0007 177.761 63.55 177.761 52.3353L177.325 48.3095V30.6248H202.139V15.6718H177.47V0.143778H161.363V41.8395C160.095 35.5693 157.057 29.7845 152.602 25.1573C148.147 20.53 142.459 17.2504 136.198 15.6994C129.936 14.1484 123.359 14.3899 117.231 16.3956C111.102 18.4014 105.674 22.0892 101.577 27.0303V14.9529H99.691C78.9402 14.9529 67.7667 26.4552 67.0411 41.1206C65.7113 33.7714 61.8121 27.121 56.0275 22.336C50.2429 17.551 42.9425 14.9371 35.407 14.9529C31.7136 14.8755 28.0434 15.5502 24.6238 16.9352C21.2043 18.3201 18.108 20.3859 15.5268 23.0045V0H0V48.3095C0.290221 67.0007 13.3502 81.9536 33.6657 81.9536C51.0789 81.9536 63.7036 70.7389 67.0411 55.786V80.372H83.0033V49.7473V45.4339C83.4386 35.657 89.5333 30.0497 99.4008 29.9059C96.663 34.0901 94.8939 38.823 94.2204 43.7648C93.547 48.7066 93.9858 53.7348 95.5056 58.4887C97.0253 63.2425 99.5882 67.6042 103.01 71.2606C106.433 74.917 110.629 77.7776 115.299 79.6371C119.969 81.4965 124.996 82.3087 130.02 82.0154C135.045 81.7222 139.941 80.3306 144.358 77.9407C148.775 75.5508 152.604 72.2218 155.569 68.1925C158.534 64.1632 160.562 59.5335 161.508 54.6357C161.508 71.0265 174.568 81.9536 190.53 81.9536C197.205 81.9536 203.01 79.078 207.508 74.4771V80.2283H223.47V46.8717V44.8588C223.906 34.0754 230.291 29.4745 237.256 29.4745C244.221 29.4745 250.316 34.0754 250.316 44.715L250.461 47.303V80.372H266.713V55.4984C269.616 71.6016 283.546 82.0974 300.089 82.0974C307.467 82.4404 314.73 80.1906 320.598 75.7451C326.465 71.2995 330.559 64.9437 332.158 57.7989H316.486C315.257 61.1176 313.021 63.9776 310.085 65.9858C307.148 67.994 303.656 69.0517 300.089 69.0136C291.382 69.0136 283.982 63.2624 282.095 53.4855H333.9V80.5158H349.862V49.7473L350.007 45.4339C350.297 35.8008 356.682 30.1934 366.84 30.1934H368.581V14.9529H366.84H366.695ZM33.5206 66.7131C31.076 66.7323 28.652 66.2693 26.3897 65.3512C24.1275 64.4331 22.0722 63.0783 20.3436 61.3655C18.6149 59.6527 17.2475 57.6163 16.3209 55.3748C15.3943 53.1334 14.9271 50.7316 14.9464 48.3095C14.9464 38.245 23.0726 29.9059 33.6657 29.9059C44.2587 29.9059 52.3849 37.9575 52.3849 48.3095C52.4046 50.7439 51.9328 53.1576 50.9972 55.4086C50.0616 57.6597 48.6811 59.7026 46.937 61.4173C45.1929 63.1321 43.1203 64.4839 40.8412 65.3933C38.562 66.3028 36.1224 66.7515 33.6657 66.7131H33.5206ZM127.842 66.7131C125.422 66.6943 123.03 66.2034 120.801 65.2683C118.572 64.3332 116.551 62.9724 114.854 61.2634C113.156 59.5545 111.814 57.5309 110.906 55.3083C109.997 53.0856 109.539 50.7074 109.559 48.3095C109.413 38.245 117.395 29.9059 127.988 29.9059C138.581 29.9059 146.562 37.9575 146.562 48.3095C146.581 50.7316 146.114 53.1334 145.187 55.3748C144.261 57.6163 142.893 59.6527 141.165 61.3655C139.436 63.0783 137.381 64.4331 135.118 65.3512C132.856 66.2693 130.432 66.7323 127.988 66.7131H127.842ZM282.676 40.833C283.767 37.1234 286.037 33.8612 289.147 31.5303C292.258 29.1994 296.044 27.9239 299.944 27.893C310.101 27.893 315.906 35.9446 317.212 40.833H282.676ZM361.035 73.4707C361.035 77.784 364.663 81.3785 369.016 81.3785C371.133 81.3785 373.163 80.5454 374.66 79.0624C376.157 77.5794 376.997 75.568 376.997 73.4707C376.997 71.3734 376.157 69.362 374.66 67.879C373.163 66.396 371.133 65.5629 369.016 65.5629C366.9 65.5629 364.87 66.396 363.373 67.879C361.876 69.362 361.035 71.3734 361.035 73.4707ZM362.051 73.4707C362.051 71.6403 362.785 69.8849 364.091 68.5907C365.397 67.2964 367.169 66.5693 369.016 66.5693C370.864 66.5693 372.635 67.2964 373.942 68.5907C375.248 69.8849 375.982 71.6403 375.982 73.4707C375.982 75.301 375.248 77.0564 373.942 78.3507C372.635 79.6449 370.864 80.372 369.016 80.372C367.169 80.372 365.397 79.6449 364.091 78.3507C362.785 77.0564 362.051 75.301 362.051 73.4707Z" fill="#005CAB"/>
<path fill-rule="evenodd" clip-rule="evenodd" d="M366.703 69.8678H369.896C371.202 69.8678 371.637 70.4429 371.637 71.4494C371.637 72.5997 371.202 73.1749 369.896 73.1749H366.703V69.8678ZM366.703 74.1814H369.896C370.766 74.1814 371.347 74.9003 371.347 76.0506V77.0571L371.782 78.2073H373.233V78.0636L372.653 76.9133V75.6192C372.508 74.7565 372.072 74.0376 371.492 73.75C372.363 73.4624 372.943 72.5997 372.943 71.3057C372.943 69.8678 371.927 68.7175 370.041 68.7175H365.397V78.2073H366.703V74.3251V74.1814Z" fill="#005CAB"/>
</svg>
