<svg width="48" height="48" viewBox="0 0 48 48" fill="none" xmlns="http://www.w3.org/2000/svg">
<path d="M23.6 21.7862C19.06 20.607 17.6 19.3878 17.6 17.489C17.6 15.3105 19.62 13.7915 23 13.7915C26.56 13.7915 27.88 15.4904 28 17.9887H32.42C32.28 14.551 30.18 11.393 26 10.3737V5.99658H20V10.3138C16.12 11.1532 13 13.6716 13 17.529C13 22.146 16.82 24.4445 22.4 25.7836C27.4 26.9828 28.4 28.7417 28.4 30.6004C28.4 31.9795 27.42 34.1781 23 34.1781C18.88 34.1781 17.26 32.3393 17.04 29.9809H12.64C12.88 34.358 16.16 36.8164 20 37.6358V41.973H26V37.6758C29.9 36.9363 33 34.6778 33 30.5805C33 24.9042 28.14 22.9655 23.6 21.7862Z" fill="#E55C61"/>
</svg>
