<svg width="48" height="48" viewBox="0 0 48 48" fill="none" xmlns="http://www.w3.org/2000/svg">
<path d="M31.808 26.1012L27.5654 30.3438L39.5578 42.3362L43.8004 38.0936L31.808 26.1012Z" fill="#FF4D53"/>
<path d="M35 19.9996C38.86 19.9996 42 16.8596 42 12.9996C42 11.8396 41.68 10.7596 41.18 9.79961L35.78 15.1996L32.8 12.2196L38.2 6.81961C37.24 6.31961 36.16 5.99961 35 5.99961C31.14 5.99961 28 9.13961 28 12.9996C28 13.8196 28.16 14.5996 28.42 15.3196L24.72 19.0196L21.16 15.4596L22.58 14.0396L19.76 11.2196L24 6.97961C21.66 4.63961 17.86 4.63961 15.52 6.97961L8.44 14.0596L11.26 16.8796H5.62L4.2 18.2996L11.28 25.3796L12.7 23.9596V18.2996L15.52 21.1196L16.94 19.6996L20.5 23.2596L5.68 38.0796L9.92 42.3196L32.68 19.5796C33.4 19.8396 34.18 19.9996 35 19.9996Z" fill="#FF4D53"/>
</svg>
