<svg width="48" height="48" viewBox="0 0 48 48" fill="none" xmlns="http://www.w3.org/2000/svg">
<path d="M7.62852 32.8584C0.586016 45.1844 0.163204 45.1064 1.10858 46.7332C2.05199 48.3584 2.36445 47.9547 15.2232 47.9547C17.8507 47.9547 18.266 46.257 21.714 40.2226C16.1061 39.6425 11.1292 36.9054 7.62852 32.8584Z" fill="#E55C61"/>
<path d="M30.1899 16.4816C24.7083 16.4816 25.7425 17.2338 24.047 12.0181C22.3515 17.2339 23.3887 16.4816 17.9042 16.4816C22.3398 19.7043 21.9453 18.4881 20.2502 23.7031C24.7037 20.4673 23.3812 20.4606 27.8439 23.7031C26.1492 18.4897 25.7498 19.7076 30.1899 16.4816Z" fill="#E55C61"/>
<path d="M42.0253 23.795C45.3611 11.506 36.0737 0 23.953 0C11.0342 0 1.82659 12.8975 6.33475 25.2016C12.3245 41.9048 37.0088 41.642 42.0253 23.795ZM24.0469 24.4315C18.194 28.6841 17.8387 29.3362 16.7381 28.5368C15.6326 27.734 16.1541 27.1801 18.3845 20.3168C12.5483 16.0771 11.8001 15.9351 12.2209 14.6348C12.6433 13.3363 13.3306 13.6606 20.5472 13.6606C22.7767 6.79716 22.6803 6.04331 24.0469 6.04331C25.4125 6.04331 25.3161 6.79397 27.5467 13.6606C34.7635 13.6606 35.4507 13.3364 35.8729 14.6348C36.2935 15.9343 35.548 16.0754 29.7093 20.3168C31.9479 27.205 32.4555 27.7382 31.3558 28.5368C30.2495 29.3402 29.8792 28.6691 24.0469 24.4315Z" fill="#E55C61"/>
<path d="M40.3328 32.793C36.8482 36.8551 31.8816 39.611 26.2793 40.2138L29.6747 46.1555C30.3094 47.2659 31.4979 47.9552 32.7767 47.9552C45.6208 47.9552 45.9458 48.3624 46.8913 46.7337C47.8379 45.1047 47.414 45.185 40.3328 32.793Z" fill="#E55C61"/>
</svg>
