<svg width="32" height="32" viewBox="0 0 32 32" fill="none" xmlns="http://www.w3.org/2000/svg">
<path d="M26.6667 10.6667H22.6667V5.33334H4C2.53333 5.33334 1.33333 6.53334 1.33333 8.00001V22.6667H4C4 24.88 5.78666 26.6667 8 26.6667C10.2133 26.6667 12 24.88 12 22.6667H20C20 24.88 21.7867 26.6667 24 26.6667C26.2133 26.6667 28 24.88 28 22.6667H30.6667V16L26.6667 10.6667ZM8 24.6667C6.89333 24.6667 6 23.7733 6 22.6667C6 21.56 6.89333 20.6667 8 20.6667C9.10666 20.6667 10 21.56 10 22.6667C10 23.7733 9.10666 24.6667 8 24.6667ZM26 12.6667L28.6133 16H22.6667V12.6667H26ZM24 24.6667C22.8933 24.6667 22 23.7733 22 22.6667C22 21.56 22.8933 20.6667 24 20.6667C25.1067 20.6667 26 21.56 26 22.6667C26 23.7733 25.1067 24.6667 24 24.6667Z" fill="black"/>
</svg>
