<svg width="32" height="32" viewBox="0 0 32 32" fill="none" xmlns="http://www.w3.org/2000/svg">
<g clip-path="url(#clip0)">
<path d="M5.08582 21.9057C0.390822 30.123 0.108947 30.071 0.739198 31.1556C1.36814 32.239 1.57645 31.9699 10.1489 31.9699C11.9006 31.9699 12.1775 30.8381 14.4761 26.8152C10.7376 26.4284 7.41964 24.6037 5.08582 21.9057V21.9057Z" fill="black"/>
<path d="M20.1267 10.9876C16.4723 10.9876 17.1618 11.4891 16.0314 8.01194C14.9011 11.4892 15.5926 10.9876 11.9362 10.9876C14.8932 13.1361 14.6303 12.3253 13.5002 15.8019C16.4692 13.6447 15.5876 13.6403 18.5627 15.8019C17.4329 12.3264 17.1666 13.1383 20.1267 10.9876Z" fill="black"/>
<path d="M28.0169 15.8634C30.2408 7.67075 24.0492 6.10352e-05 15.9687 6.10352e-05C7.35617 6.10352e-05 1.21779 8.59837 4.22323 16.8011C8.21642 27.9366 24.6726 27.7614 28.0169 15.8634V15.8634ZM16.0314 16.2877C12.1294 19.1228 11.8925 19.5575 11.1588 19.0246C10.4218 18.4894 10.7695 18.1201 12.2564 13.5446C8.3656 10.7181 7.86679 10.6234 8.14735 9.75656C8.42891 8.89094 8.8871 9.10712 13.6982 9.10712C15.1845 4.5315 15.1203 4.02894 16.0314 4.02894C16.9417 4.02894 16.8775 4.52937 18.3645 9.10712C23.1757 9.10712 23.6339 8.891 23.9154 9.75656C24.1957 10.6229 23.6987 10.717 19.8063 13.5446C21.2987 18.1367 21.637 18.4922 20.9039 19.0246C20.1664 19.5602 19.9195 19.1128 16.0314 16.2877Z" fill="black"/>
<path d="M26.8886 21.8618C24.5655 24.5699 21.2544 26.4071 17.5196 26.809L19.7832 30.7702C20.2063 31.5105 20.9987 31.97 21.8512 31.97C30.4139 31.97 30.6306 32.2415 31.2609 31.1557C31.892 30.0697 31.6094 30.1232 26.8886 21.8618V21.8618Z" fill="black"/>
</g>
<defs>
<clipPath id="clip0">
<rect width="32" height="32" fill="white"/>
</clipPath>
</defs>
</svg>
